<svg width="70" height="70" viewBox="0 0 70 70" fill="none" xmlns="http://www.w3.org/2000/svg">
<g id="Bold / Time / Alarm Play">
<g id="Vector">
<path fill-rule="evenodd" clip-rule="evenodd" d="M35 58.3333C46.5979 58.3333 55.9999 48.9313 55.9999 37.3333C55.9999 25.7354 46.5979 16.3333 35 16.3333C23.402 16.3333 13.9999 25.7354 13.9999 37.3333C13.9999 48.9313 23.402 58.3333 35 58.3333ZM37.3942 30.9748C36.8406 30.5861 36.2136 30.1839 35.5645 29.7892C33.0622 28.2675 31.8111 27.5067 30.6889 28.3491C29.5668 29.1914 29.4648 30.9548 29.2608 34.4817C29.2032 35.479 29.1666 36.4568 29.1666 37.3333C29.1666 38.2099 29.2032 39.1876 29.2608 40.185C29.4648 43.7118 29.5668 45.4753 30.6889 46.3176C31.811 47.16 33.0622 46.3991 35.5645 44.8775C36.2136 44.4828 36.8406 44.0806 37.3942 43.6919C38.0253 43.2487 38.712 42.717 39.4044 42.1521C41.9125 40.1061 43.1666 39.0831 43.1666 37.3333C43.1666 35.5836 41.9125 34.5606 39.4044 32.5146C38.712 31.9497 38.0253 31.4179 37.3942 30.9748Z" fill="#CB5060"/>
<path fill-rule="evenodd" clip-rule="evenodd" d="M25.984 10.7392C26.4962 11.5588 26.2471 12.6384 25.4275 13.1507L16.0941 18.984C15.2745 19.4963 14.1949 19.2471 13.6826 18.4275C13.1704 17.6079 13.4195 16.5283 14.2391 16.016L23.5725 10.1827C24.3921 9.67044 25.4718 9.91959 25.984 10.7392ZM44.016 10.7392C44.5282 9.91959 45.6079 9.67044 46.4274 10.1827L55.7608 16.016C56.5804 16.5283 56.8295 17.6079 56.3173 18.4275C55.805 19.2471 54.7254 19.4963 53.9058 18.984L44.5724 13.1507C43.7529 12.6384 43.5037 11.5588 44.016 10.7392Z" fill="#CB5060"/>
</g>
</g>
</svg>
