<svg width="30" height="30" viewBox="0 0 30 30" fill="none" xmlns="http://www.w3.org/2000/svg">
<g id="Outline / Map &#38; Location / Route">
<path id="Vector" fill-rule="evenodd" clip-rule="evenodd" d="M12.9181 6.6318C12.0627 7.28446 11.0682 8.27676 9.67247 9.67247C8.27676 11.0682 7.28446 12.0627 6.6318 12.9181C5.99235 13.7562 5.75 14.3721 5.75 15C5.75 15.6279 5.99235 16.2438 6.6318 17.0819C7.28446 17.9373 8.27676 18.9318 9.67247 20.3275C11.0682 21.7232 12.0627 22.7155 12.9181 23.3682C13.7562 24.0077 14.3721 24.25 15 24.25C15.6279 24.25 16.2438 24.0077 17.0819 23.3682C17.9373 22.7155 18.9318 21.7232 20.3275 20.3275C21.7232 18.9318 22.7155 17.9373 23.3682 17.0819C24.0077 16.2438 24.25 15.6279 24.25 15C24.25 14.3721 24.0077 13.7562 23.3682 12.9181C22.7155 12.0627 21.7232 11.0682 20.3275 9.67247C18.9318 8.27676 17.9373 7.28446 17.0819 6.6318C16.2438 5.99235 15.6279 5.75 15 5.75C14.3721 5.75 13.7562 5.99235 12.9181 6.6318ZM12.0083 5.43927C12.9798 4.69801 13.9122 4.25 15 4.25C16.0878 4.25 17.0202 4.69801 17.9917 5.43927C18.9366 6.1602 20.0014 7.22502 21.3482 8.57182L21.4282 8.65179C22.775 9.99857 23.8398 11.0634 24.5607 12.0083C25.302 12.9798 25.75 13.9122 25.75 15C25.75 16.0878 25.302 17.0202 24.5607 17.9917C23.8398 18.9366 22.775 20.0014 21.4282 21.3482L21.3482 21.4282C20.0014 22.775 18.9366 23.8398 17.9917 24.5607C17.0202 25.302 16.0878 25.75 15 25.75C13.9122 25.75 12.9798 25.302 12.0083 24.5607C11.0634 23.8398 9.99857 22.775 8.65179 21.4282L8.57182 21.3482C7.22502 20.0014 6.1602 18.9366 5.43927 17.9917C4.69801 17.0202 4.25 16.0878 4.25 15C4.25 13.9122 4.69801 12.9798 5.43927 12.0083C6.16019 11.0634 7.225 9.99858 8.57179 8.65182L8.65182 8.57179C9.99858 7.225 11.0634 6.16019 12.0083 5.43927ZM15.4697 12.4697C15.7626 12.1768 16.2374 12.1768 16.5303 12.4697L18.5303 14.4697C18.8232 14.7626 18.8232 15.2374 18.5303 15.5303L16.5303 17.5303C16.2374 17.8232 15.7626 17.8232 15.4697 17.5303C15.1768 17.2374 15.1768 16.7626 15.4697 16.4697L16.1893 15.75H14C13.5074 15.75 13.2134 15.7516 13.0027 15.7799C12.9061 15.7929 12.8577 15.8082 12.836 15.8172C12.8309 15.8192 12.8276 15.8209 12.8257 15.8219L12.8232 15.8232L12.8219 15.8257C12.8212 15.8269 12.8204 15.8286 12.8193 15.831C12.8186 15.8324 12.8179 15.8341 12.8172 15.836C12.8082 15.8577 12.7929 15.9061 12.7799 16.0027C12.7516 16.2134 12.75 16.5074 12.75 17C12.75 17.4142 12.4142 17.75 12 17.75C11.5858 17.75 11.25 17.4142 11.25 17L11.25 16.9553C11.2499 16.5224 11.2499 16.1256 11.2933 15.8028C11.3411 15.4473 11.4535 15.0716 11.7626 14.7626C12.0716 14.4535 12.4473 14.3411 12.8028 14.2933C13.1256 14.2499 13.5224 14.2499 13.9553 14.25C13.9701 14.25 13.985 14.25 14 14.25H16.1893L15.4697 13.5303C15.1768 13.2374 15.1768 12.7626 15.4697 12.4697ZM12.8232 15.8232C12.8236 15.823 12.8236 15.8228 12.8232 15.8232Z" fill="white"/>
</g>
</svg>
