<svg width="70" height="70" viewBox="0 0 70 70" fill="none" xmlns="http://www.w3.org/2000/svg">
<g id="Bold / Call / Phone ">
<path id="Vector" d="M45.6311 37.1144L44.5684 38.1711C44.5684 38.1711 42.0423 40.6827 35.1473 33.8269C28.2523 26.971 30.7783 24.4593 30.7783 24.4593L31.4476 23.7939C33.0962 22.1546 33.2516 19.5228 31.8133 17.6015L28.871 13.6712C27.0907 11.2931 23.6506 10.979 21.6101 13.0079L17.9477 16.6495C16.9359 17.6556 16.2579 18.9597 16.3401 20.4064C16.5505 24.1076 18.225 32.0709 27.5692 41.362C37.4784 51.2149 46.776 51.6064 50.578 51.252C51.7806 51.1399 52.8265 50.5274 53.6693 49.6894L56.9839 46.3936C59.2213 44.1689 58.5905 40.3548 55.7278 38.7986L51.27 36.3753C49.3903 35.3535 47.1002 35.6536 45.6311 37.1144Z" fill="#CB5060"/>
</g>
</svg>
