<svg width="37" height="37" viewBox="0 0 37 37" fill="none" xmlns="http://www.w3.org/2000/svg">
<g id="Bold / Users / User Circle">
<path id="Vector" fill-rule="evenodd" clip-rule="evenodd" d="M30.8334 18.5C30.8334 25.3115 25.3116 30.8333 18.5001 30.8333C11.6886 30.8333 6.16675 25.3115 6.16675 18.5C6.16675 11.6885 11.6886 6.16667 18.5001 6.16667C25.3116 6.16667 30.8334 11.6885 30.8334 18.5ZM22.2001 14.8C22.2001 16.8435 20.5435 18.5 18.5001 18.5C16.4566 18.5 14.8001 16.8435 14.8001 14.8C14.8001 12.7565 16.4566 11.1 18.5001 11.1C20.5435 11.1 22.2001 12.7565 22.2001 14.8ZM18.5001 28.9833C20.7004 28.9833 22.7424 28.3055 24.4286 27.1471C25.1734 26.6356 25.4917 25.661 25.0587 24.868C24.161 23.224 22.3114 22.2 18.5 22.2C14.6887 22.2 12.839 23.2239 11.9414 24.8679C11.5084 25.6609 11.8266 26.6355 12.5714 27.1471C14.2576 28.3054 16.2997 28.9833 18.5001 28.9833Z" fill="#0C191F"/>
</g>
</svg>
